<svg width="206" height="238" viewBox="0 0 206 238" fill="none" xmlns="http://www.w3.org/2000/svg">
<path d="M108.126 129.528C108.158 100.27 81.661 46.0976 117.882 13.0801L167.554 45.4591C167.765 55.2449 170.517 69.0443 172.533 76.8277C174.548 84.6111 183.506 89.2906 189.765 94.3375C193.414 97.2801 198.102 98.9151 201.221 102.414C204.628 106.235 205.592 111.794 204.72 116.838C203.848 121.882 201.34 126.496 198.487 130.746C190.117 143.21 178.174 153.507 164.048 158.593C149.922 163.678 133.602 163.214 120.402 156.062C117.283 154.372 114.297 152.278 112.21 149.409C108.157 143.841 108.119 136.415 108.126 129.528Z" fill="#263238"/>
<path d="M105.782 111.852C109.749 111.295 113.92 110.787 117.944 110.418C130.098 109.312 141.431 109.754 155.249 110.418C158.805 110.631 162.28 110.91 165.558 111.238C166.288 111.311 167.014 111.423 167.733 111.573C178.954 113.921 186.148 124.921 183.801 136.143C179.136 158.577 166.224 173.933 164.825 188.623C162.975 208.051 173.683 224.584 175.605 237.763L79.3796 236.948C87.2699 215.344 87.6191 212.122 85.767 195.806C70.024 184.98 78.2596 157.704 83.5455 145.899C92.7593 122.289 91.4046 113.901 105.782 111.852Z" fill="#263238"/>
<path opacity="0.8" d="M105.782 111.852C109.749 111.295 113.92 110.787 117.944 110.418C130.098 109.312 141.431 109.754 155.249 110.418C158.805 110.631 162.28 110.91 165.558 111.238C166.288 111.311 167.014 111.423 167.733 111.573C178.954 113.921 186.148 124.921 183.801 136.143C179.136 158.577 166.224 173.933 164.825 188.623C162.975 208.051 173.683 224.584 175.605 237.763L79.3796 236.948C87.2699 215.344 87.6191 212.122 85.767 195.806C70.024 184.98 78.2596 157.704 83.5455 145.899C92.7593 122.289 91.4046 113.901 105.782 111.852Z" fill="white"/>
<path opacity="0.3" d="M171.448 223.209C171.448 223.209 170.323 225.674 159.478 223.209C148.634 220.744 105.174 199.217 105.174 199.217C105.174 199.217 98.851 200.026 94.6088 197.437C90.3665 194.847 85.876 178.002 85.876 178.002L130.431 194.434L170.161 218.316L171.448 223.209Z" fill="#1F263E"/>
<path opacity="0.3" d="M130.172 227.132L89.2632 219.604C89.2632 219.604 109.703 230.619 130.172 227.132Z" fill="#1F263E"/>
<path d="M81.7258 124.728L49.3518 156.579L43.3865 109.439L27.3895 110.659C27.3895 110.659 24.3921 161.685 31.8465 183.796C33.5723 188.915 38.6086 191.434 43.5426 190.556C60.0518 187.619 78.528 164.807 78.528 164.807L81.7258 124.728Z" fill="#FDAD6D"/>
<path d="M100.708 113.063C100.259 113.223 87.7996 116.295 81.8827 122.634C72.5963 132.584 62.458 142.534 62.458 142.534L83.0831 164.91L101.633 112.77" fill="#1F263E"/>
<path opacity="0.3" d="M49.6783 156.58C49.6783 156.58 51.162 166.434 49.0656 169.011C49.0656 169.011 55.0989 164.35 51.7367 154.555L49.6783 156.58Z" fill="#1F263E"/>
<path d="M61.2616 94.7419L50.9433 93.8019C48.8482 93.6066 47.0375 92.2575 46.251 90.3058C45.8524 89.3261 44.9141 88.6731 43.857 88.6398C38.055 88.45 24.1707 88.0053 14.7803 87.8634C2.65437 87.6858 0.743103 85.5671 0.924725 83.6071C1.10627 81.647 3.36375 79.8961 15.3202 81.9319C24.5845 83.4875 38.3178 85.5571 44.0584 86.4172C45.104 86.5757 46.1449 86.1035 46.7142 85.2123C47.841 83.4355 49.8656 82.4367 51.9612 82.6237L62.2794 83.5637C62.7141 83.6027 63.0349 83.9867 62.9959 84.4214C62.9569 84.856 62.5729 85.1768 62.1383 85.1378L53.0588 84.3082C52.9585 84.2996 52.8575 84.3083 52.7602 84.334C52.2917 84.4574 52.012 84.9373 52.1354 85.4058L52.5377 86.94C52.631 87.2966 52.9372 87.5569 53.3043 87.5914L62.6316 88.4402C62.676 88.4407 62.7203 88.4448 62.7641 88.4527C63.1932 88.5302 63.4782 88.9409 63.4008 89.37C63.3233 89.7991 62.9126 90.0841 62.4835 90.0066L53.1635 89.1582C52.7969 89.1271 52.4493 89.3261 52.2906 89.658L51.6147 91.0894C51.5726 91.1804 51.5464 91.278 51.5373 91.3778C51.4932 91.8603 51.8485 92.2872 52.331 92.3313L61.4104 93.1609C61.831 93.2159 62.1348 93.5907 62.1015 94.0136C62.065 94.4439 61.6927 94.7668 61.2616 94.7419Z" fill="#263238"/>
<path opacity="0.8" d="M61.2616 94.7419L50.9433 93.8019C48.8482 93.6066 47.0375 92.2575 46.251 90.3058C45.8524 89.3261 44.9141 88.6731 43.857 88.6398C38.055 88.45 24.1707 88.0053 14.7803 87.8634C2.65437 87.6858 0.743103 85.5671 0.924725 83.6071C1.10627 81.647 3.36375 79.8961 15.3202 81.9319C24.5845 83.4875 38.3178 85.5571 44.0584 86.4172C45.104 86.5757 46.1449 86.1035 46.7142 85.2123C47.841 83.4355 49.8656 82.4367 51.9612 82.6237L62.2794 83.5637C62.7141 83.6027 63.0349 83.9867 62.9959 84.4214C62.9569 84.856 62.5729 85.1768 62.1383 85.1378L53.0588 84.3082C52.9585 84.2996 52.8575 84.3083 52.7602 84.334C52.2917 84.4574 52.012 84.9373 52.1354 85.4058L52.5377 86.94C52.631 87.2966 52.9372 87.5569 53.3043 87.5914L62.6316 88.4402C62.676 88.4407 62.7203 88.4448 62.7641 88.4527C63.1932 88.5302 63.4782 88.9409 63.4008 89.37C63.3233 89.7991 62.9126 90.0841 62.4835 90.0066L53.1635 89.1582C52.7969 89.1271 52.4493 89.3261 52.2906 89.658L51.6147 91.0894C51.5726 91.1804 51.5464 91.278 51.5373 91.3778C51.4932 91.8603 51.8485 92.2872 52.331 92.3313L61.4104 93.1609C61.831 93.2159 62.1348 93.5907 62.1015 94.0136C62.065 94.4439 61.6927 94.7668 61.2616 94.7419Z" fill="white"/>
<path d="M43.363 112.107C43.1624 112.207 44.9677 110.502 42.7613 107.694C40.5548 104.886 34.7378 98.1659 34.7378 98.1659C34.7378 98.1659 37.9472 95.8591 36.3425 92.9506C34.7378 90.0421 34.0357 90.5435 34.0357 90.5435C34.0357 90.5435 34.4369 86.0303 30.2246 84.8268C26.0122 83.6233 19.4931 89.5406 19.4931 89.5406L19.9946 84.6653L24.1067 83.0215C24.1067 83.0215 27.3161 83.3224 27.3161 80.6145C27.3161 77.9066 24.7084 77.8062 22.4017 78.2074C20.0949 78.6086 15.0802 79.6115 14.3782 80.7148C13.6761 81.818 9.36345 95.6585 11.2691 98.3664C13.1746 101.074 29.3347 113.11 29.3347 113.11L43.363 112.107Z" fill="#FDAD6D"/>
<path opacity="0.3" d="M27.7104 111.891L34.1222 113.11L27.5692 113.612L27.7104 111.891Z" fill="#1F263E"/>
<path d="M56.7912 86.9955C56.8859 86.2822 57.327 84.9235 57.7266 84.3729C58.1262 83.8223 59.2599 83.1474 59.9171 82.8337C60.5268 82.5377 61.7878 82.1055 62.5337 82.0996H63.7177C64.4637 82.0996 65.9585 82.4963 66.7281 82.7745C67.557 83.0705 69.2353 83.8312 69.9516 84.4025C70.668 84.9738 71.5441 86.2703 72.0474 86.9926C72.5506 87.7148 73.4386 89.035 73.6873 89.7928C73.9409 90.7073 74.0162 91.6619 73.9092 92.6049C73.7672 93.3478 73.3913 94.6414 72.9738 95.2275C72.4175 95.9086 71.7389 96.4798 70.9729 96.9117C70.052 97.3242 69.0664 97.5736 68.0602 97.6488H66.8761C66.0947 97.6488 64.5081 97.2669 63.7177 96.9769C62.6988 96.6034 61.7296 96.1064 60.8317 95.4968C59.9532 94.7133 59.1523 93.8469 58.44 92.9097C57.7903 92.0016 57.2749 91.0048 56.9097 89.9497C56.7126 88.9776 56.6726 87.9803 56.7912 86.9955Z" fill="#1F263E"/>
<path d="M70.1855 93.0275C70.1855 93.0275 67.3764 91.0887 67.1218 90.174C66.8258 89.1498 68.7499 86.918 68.7499 86.918C69.102 87.3204 69.4274 87.7456 69.7237 88.1908C70.0944 88.6921 70.41 89.2321 70.665 89.8011C70.8123 90.3274 70.8566 90.8772 70.7952 91.4202C70.7016 91.9501 70.5194 92.4604 70.2565 92.9298C70.2349 92.9639 70.2112 92.9965 70.1855 93.0275Z" fill="#1F263E"/>
<path d="M65.6863 89.153C64.6384 89.153 61.6902 86.5511 61.6902 86.5511C61.7184 86.4997 61.75 86.4502 61.7849 86.4031C62.1433 86.0277 62.5717 85.726 63.0459 85.5151C63.5207 85.2901 64.0301 85.147 64.5525 85.0918C65.1444 85.1453 65.7267 85.2766 66.2842 85.4825C66.9384 85.718 67.5617 86.0321 68.1402 86.4179L68.2112 86.48C68.2112 86.48 66.7371 89.1412 65.6863 89.153Z" fill="#1F263E"/>
<path d="M66.2515 91.1816C67.1603 91.1816 69.7385 93.3869 69.7385 93.3869C69.4748 93.6507 69.176 93.8768 68.8505 94.0588C68.3208 94.2965 67.754 94.4407 67.1751 94.4851C66.5542 94.4345 65.9423 94.3041 65.3547 94.0973C64.8893 93.9205 64.4397 93.7046 64.0108 93.452C64.0108 93.452 65.3428 91.1934 66.2515 91.1816Z" fill="#1F263E"/>
<path d="M61.0331 88.2087C61.1038 87.7931 61.2271 87.3884 61.4001 87.0039C61.4001 87.0039 64.5289 89.1766 64.8249 90.1978C65.0824 91.1125 63.3656 93.1046 63.3656 93.1046C62.859 92.6579 62.398 92.1621 61.9891 91.6246C61.6126 91.1051 61.3135 90.5338 61.1011 89.9285C60.9871 89.3624 60.9642 88.7819 61.0331 88.2087Z" fill="#1F263E"/>
<g opacity="0.3">
<path d="M70.1855 93.0275C70.1855 93.0275 67.3764 91.0887 67.1218 90.174C66.8258 89.1498 68.7499 86.918 68.7499 86.918C69.102 87.3204 69.4274 87.7456 69.7237 88.1908C70.0944 88.6921 70.41 89.2321 70.665 89.8011C70.8123 90.3274 70.8566 90.8772 70.7952 91.4202C70.7016 91.9501 70.5194 92.4604 70.2565 92.9298C70.2349 92.9639 70.2112 92.9965 70.1855 93.0275Z" fill="white"/>
<path d="M65.6862 89.153C64.6383 89.153 61.6901 86.5511 61.6901 86.5511C61.7183 86.4997 61.7499 86.4502 61.7848 86.4031C62.1432 86.0277 62.5716 85.726 63.0458 85.5151C63.5206 85.2901 64.03 85.147 64.5524 85.0918C65.1443 85.1453 65.7266 85.2766 66.2841 85.4825C66.9383 85.718 67.5616 86.0321 68.1401 86.4179L68.2111 86.48C68.2111 86.48 66.7369 89.1412 65.6862 89.153Z" fill="white"/>
<path d="M66.2515 91.1797C67.1603 91.1797 69.7385 93.3849 69.7385 93.3849C69.4748 93.6487 69.176 93.8748 68.8505 94.0568C68.3208 94.2945 67.754 94.4387 67.1751 94.4831C66.5542 94.4325 65.9423 94.3022 65.3547 94.0954C64.8893 93.9186 64.4397 93.7027 64.0108 93.4501C64.0108 93.4501 65.3428 91.1915 66.2515 91.1797Z" fill="white"/>
<path d="M61.0329 88.2087C61.1036 87.7931 61.227 87.3884 61.4 87.0039C61.4 87.0039 64.5287 89.1766 64.8248 90.1978C65.0822 91.1125 63.3654 93.1046 63.3654 93.1046C62.8589 92.6579 62.3979 92.1621 61.989 91.6246C61.6125 91.1051 61.3134 90.5338 61.101 89.9285C60.987 89.3624 60.964 88.7819 61.0329 88.2087Z" fill="white"/>
</g>
<g opacity="0.5">
<path d="M69.6379 90.5216C69.9961 90.5956 70.1352 90.4624 70.1263 90.2551C70.1174 90.048 69.9635 89.8555 69.6053 89.7786C69.2472 89.7016 68.966 89.8111 68.9749 90.0154C68.9838 90.2196 69.265 90.4476 69.6379 90.5216Z" fill="white"/>
<path d="M69.3715 91.814C69.703 91.9679 69.8777 91.8851 69.925 91.7074C69.9724 91.5299 69.8717 91.3256 69.5402 91.1717C69.2087 91.0177 68.9008 91.0385 68.8535 91.2161C68.8061 91.3937 69.037 91.6512 69.3715 91.814Z" fill="white"/>
<path d="M69.1791 88.901C69.4278 88.827 69.4603 88.6671 69.3715 88.5043C69.2775 88.3178 69.0571 88.2332 68.8624 88.3089C68.6108 88.38 68.4806 88.5724 68.5664 88.7352C68.7135 88.9169 68.9605 88.9837 69.1791 88.901Z" fill="white"/>
<path d="M64.1972 87.0569C63.9989 86.8142 63.8154 86.7787 63.6852 86.8586C63.5549 86.9386 63.5342 87.1013 63.7296 87.347C63.925 87.5927 64.1914 87.723 64.3216 87.643C64.4519 87.5631 64.3926 87.3026 64.1972 87.0569Z" fill="white"/>
<path d="M66.6187 87.2888C66.6668 87.0867 66.5543 86.8809 66.3582 86.8122C66.1836 86.7442 66.0266 86.7974 65.9853 87.052C65.927 87.282 66.027 87.5228 66.2309 87.644C66.4056 87.6973 66.5772 87.5434 66.6187 87.2888Z" fill="white"/>
<path d="M65.7129 88.1405C65.6122 87.8444 65.4168 87.7083 65.2304 87.7172C65.0439 87.7261 64.9344 87.8623 65.0291 88.1731C65.1238 88.4838 65.3606 88.7266 65.5471 88.7177C65.7336 88.7088 65.8016 88.4513 65.7129 88.1405Z" fill="white"/>
<path d="M68.2289 90.7644C68.5249 90.8295 68.6374 90.723 68.6345 90.5573C68.6315 90.3915 68.5101 90.2287 68.217 90.1606C67.924 90.0925 67.6902 90.1754 67.6961 90.3412C67.702 90.5069 67.9388 90.6904 68.2289 90.7644Z" fill="white"/>
<path d="M66.9798 93.6905C67.1189 93.9628 67.3054 94.0398 67.4622 94.0013C67.6191 93.9628 67.6872 93.8178 67.551 93.5455C67.4149 93.2731 67.1722 93.0837 67.0153 93.1221C66.8584 93.1607 66.8436 93.427 66.9798 93.6905Z" fill="white"/>
<path d="M68.1963 93.303C68.4005 93.5458 68.5871 93.5813 68.7144 93.4955C68.8416 93.4096 68.8653 93.2468 68.661 93.0011C68.4568 92.7554 68.1904 92.6252 68.069 92.7051C67.9477 92.7851 67.9951 93.0573 68.1963 93.303Z" fill="white"/>
<path d="M66.7578 92.4621C66.9768 92.696 67.1604 92.7167 67.2787 92.622C67.3971 92.5272 67.406 92.3556 67.19 92.1218C66.9739 91.8879 66.6986 91.7724 66.5802 91.8671C66.4617 91.9619 66.5417 92.2431 66.7578 92.4621Z" fill="white"/>
<path d="M62.3324 88.6706C62.0364 88.5759 61.9121 88.6706 61.8943 88.8275C61.8766 88.9844 61.9861 89.159 62.2762 89.2537C62.5663 89.3485 62.8149 89.2981 62.8326 89.1354C62.8504 88.9726 62.6255 88.7653 62.3324 88.6706Z" fill="white"/>
<path d="M63.6793 89.8984C63.3981 89.8984 63.3181 90.0346 63.3625 90.1945C63.4277 90.4009 63.6299 90.5324 63.845 90.5082C64.1263 90.5082 64.3187 90.3721 64.2743 90.2123C64.2299 90.0524 63.9634 89.9014 63.6793 89.8984Z" fill="white"/>
<path d="M62.2081 90.2109C61.9121 90.2109 61.847 90.3471 61.8914 90.507C61.9553 90.7129 62.1565 90.8446 62.3709 90.8207C62.6669 90.8207 62.8474 90.6816 62.8001 90.5247C62.7527 90.3679 62.4893 90.2109 62.2081 90.2109Z" fill="white"/>
<path d="M62.809 91.2954C62.668 91.3781 62.6208 91.5596 62.7035 91.7005C62.7177 91.7248 62.7353 91.7468 62.7558 91.7661C62.8765 91.9247 63.1031 91.9555 63.2618 91.8348L63.2737 91.8253C63.4525 91.7331 63.5227 91.5136 63.4305 91.3348C63.4235 91.3212 63.4156 91.3081 63.407 91.2954C63.2346 91.1489 62.9814 91.1489 62.809 91.2954Z" fill="white"/>
<path d="M65.2659 92.4454C65.1689 92.6215 65.233 92.843 65.4091 92.94L65.4199 92.9457C65.5522 93.0416 65.7373 93.0121 65.8332 92.8797C65.8483 92.859 65.8606 92.8364 65.8698 92.8125C65.9808 92.6145 65.9347 92.3656 65.7603 92.2204C65.5945 92.1169 65.3724 92.2175 65.2659 92.4454Z" fill="white"/>
<path d="M64.8988 86.2436C64.8836 86.0285 64.719 85.8538 64.5051 85.8262C64.3305 85.8262 64.2091 85.918 64.2624 86.1962C64.3157 86.4745 64.5021 86.7142 64.6798 86.726C64.8573 86.7379 64.952 86.5247 64.8988 86.2436Z" fill="white"/>
</g>
<path d="M124.531 87.059C126.933 96.6992 127.296 106.931 113.479 110.229C113.479 110.229 102.866 123.624 111.576 139.784C129.402 120.089 151.972 110.229 151.972 110.229C143.313 101.968 145.731 79.2707 148.158 66.8906L124.531 87.059Z" fill="#FDAD6D"/>
<path d="M128.556 9.75089C107.576 14.3934 99.5004 44.1344 100.549 63.1866C101.691 84.3528 124.878 94.6357 142.831 81.6045C154.771 72.9198 156.395 64.3112 161.223 44.1682C166.06 24.0252 149.198 5.17606 128.556 9.75089Z" fill="#FDAD6D"/>
<path d="M163.911 64.3043C145.806 66.7651 138.822 24.9049 159.87 17.2012C181.392 20.9558 182.016 61.8435 163.911 64.3043Z" fill="#263238"/>
<path d="M132.176 60.5415C132.368 60.347 132.368 60.034 132.176 59.8396C131.981 59.6472 131.668 59.6472 131.474 59.8396C128.337 62.7067 124.022 63.9093 119.855 63.0784L119.84 63.0758C119.577 63.0338 119.33 63.213 119.288 63.4758L119.287 63.4834C119.24 63.7502 119.419 64.0043 119.686 64.0508C120.618 64.2143 121.563 64.2992 122.51 64.3045C126.098 64.3529 129.565 63.0033 132.176 60.5415Z" fill="#263238"/>
<path d="M162.314 51.1882C158.137 48.6767 152.344 53.5221 149.68 57.6573C146.712 62.2491 147.279 67.9571 152.217 68.2193C156.167 68.2912 159.957 66.6655 162.627 63.7543C166.204 60.0166 166.492 53.6997 162.314 51.1882Z" fill="#FDAD6D"/>
<path d="M118.29 12.6272C120.48 11.1827 122.97 9.82036 125.575 10.1251L153.805 25.0853C149.074 28.5152 146.762 34.9635 148.237 40.6181C143.459 39.955 138.681 39.2917 133.902 38.6286C132.417 38.4224 130.713 38.0702 130.014 36.7438C129.57 35.9017 129.669 34.8858 129.821 33.946C130.306 30.9538 131.214 28.0306 132.51 25.2906C129.663 26.9904 127.488 29.786 126.542 32.9645C125.918 29.3586 126.851 25.5106 129.056 22.59C126.527 22.2532 124.027 23.7093 122.426 25.6965C120.826 27.6837 120.121 31.6729 119.279 34.0814C113.65 31.9568 107.57 29.0605 101.58 28.4979C106.159 22.2801 111.845 16.8799 118.29 12.6272Z" fill="#263238"/>
<path d="M169.571 62.4445C169.571 62.4445 165.378 46.7873 156.624 36.6485C151.583 30.8112 141.417 21.4291 133.991 19.3468C126.565 17.2644 123.048 16.6996 115.44 15.4353C114.42 15.2658 113.39 13.5876 114.152 11.6401C114.698 10.2447 117.347 9.76848 118.809 9.43861C121.833 8.7561 124 9.23033 126.33 7.18533C134.954 -0.383228 151.65 -0.727203 157.199 0.757513C169.33 4.00356 175.723 8.17369 184.69 16.7277C186.37 18.3302 187.944 20.7031 189.114 22.7081C190.284 24.713 191.438 27.5657 189.999 29.3879C188.59 31.1731 179.865 31.1731 179.865 31.1731C182.22 35.4404 183.007 40.8054 181.641 46.194C180.443 50.9184 179.411 53.7054 174.869 55.4742C174.869 55.4742 178.84 63.3791 169.571 62.4445Z" fill="#1F263E"/>
<path d="M134.422 46.0285C134.161 47.9632 132.842 49.4679 131.475 49.3892C130.108 49.3109 129.211 47.6792 129.471 45.7449C129.731 43.8104 131.051 42.3055 132.418 42.3838C133.785 42.4621 134.682 44.0938 134.422 46.0285Z" fill="#263238"/>
<path d="M114.395 44.1044C114.142 45.9506 112.849 47.385 111.506 47.3084C110.163 47.2313 109.28 45.6725 109.532 43.8261C109.785 41.9799 111.079 40.5452 112.421 40.6221C113.764 40.6987 114.647 42.2579 114.395 44.1044Z" fill="#263238"/>
<path d="M137.709 39.1196C137.44 39.1513 137.169 39.0837 136.961 38.9102C133.728 36.1971 130.074 37.2239 130.032 37.2358C129.491 37.3893 128.944 37.116 128.822 36.6098C128.701 36.1039 129.046 35.5654 129.595 35.4041C129.786 35.3494 134.372 34.0564 138.383 37.4249C138.783 37.7604 138.789 38.3658 138.397 38.7762C138.207 38.9733 137.96 39.09 137.709 39.1196Z" fill="#263238"/>
<path d="M108.305 34.2017C108.1 34.085 107.944 33.8966 107.882 33.6612C107.756 33.1747 108.079 32.6726 108.602 32.5392C113.855 31.2052 117.174 33.964 117.313 34.0843C117.706 34.4192 117.725 34.9952 117.354 35.3722C116.986 35.7489 116.368 35.7831 115.975 35.4514C115.847 35.3415 113.239 33.2382 109.062 34.3001C108.792 34.3684 108.521 34.3255 108.305 34.2017Z" fill="#263238"/>
<path d="M119.908 43.1738C119.908 43.1738 115.592 51.5835 111.467 55.5418C113.747 58.12 118.249 57.2119 118.249 57.2119L119.908 43.1738Z" fill="#FF8431"/>
<path d="M128.641 41.1641L132.986 42.5573C130.803 44.6558 128.641 41.1641 128.641 41.1641Z" fill="#263238"/>
<path d="M108.869 39.4199L113.214 40.8131C111.031 42.9117 108.869 39.4199 108.869 39.4199Z" fill="#263238"/>
<path opacity="0.5" d="M153.04 61.4374C153.171 61.4374 153.284 61.3386 153.299 61.205C153.523 59.2276 154.714 57.3503 156.408 56.3057C158.103 55.2611 160.315 55.0402 162.182 55.7287C162.318 55.7795 162.468 55.7093 162.519 55.5736C162.568 55.438 162.499 55.2873 162.363 55.2372C160.349 54.4949 157.961 54.7328 156.134 55.8599C154.305 56.9873 153.02 59.0128 152.779 61.1464C152.763 61.2899 152.866 61.4197 153.01 61.4357C153.02 61.4368 153.03 61.4374 153.04 61.4374Z" fill="#1F263E"/>
<path d="M173.358 52.5636C172.345 48.98 171.983 47.66 170.648 45.4693C164.544 35.4568 158.031 25.0345 147.883 19.1591C143.641 16.7029 139.022 14.6047 134.363 13.0794C130.494 11.8127 126.978 11.097 123.109 9.83035C133.056 9.50271 136.561 10.7197 147.72 16.3802C155.564 20.359 171.838 33.4458 173.358 52.5636Z" fill="#1F263E"/>
<path d="M158.189 119.036C169.256 109.343 182.171 120.035 184.849 134.151C189.621 159.301 187.612 211.425 180.757 218.069C177.844 220.891 171.89 221.052 166.558 219.791C142.434 214.082 104.368 194.906 104.368 194.906L116.005 182.928L160.451 191.988C160.451 191.988 155.305 140.051 155.305 135.143C155.305 134.366 155.582 121.32 158.189 119.036Z" fill="#FDAD6D"/>
<path d="M191.749 175.218H158.313C158.313 175.218 151.076 126.562 157.028 115.395C159.65 110.476 167.697 109.928 174.06 111.68C192.229 116.681 191.749 175.218 191.749 175.218Z" fill="#1F263E"/>
<path opacity="0.3" d="M124.813 184.848C124.813 184.848 116.698 192.037 108.344 194.433C108.344 194.433 118.711 194.866 128.051 185.538L124.813 184.848Z" fill="#1F263E"/>
<path d="M107.149 161.795C89.4846 161.795 75.1648 159.614 75.1648 156.925C75.1648 154.235 89.4846 152.055 107.149 152.055C124.813 152.055 139.133 154.235 139.133 156.925C139.133 159.614 124.813 161.795 107.149 161.795Z" fill="#263238"/>
<path d="M86.1217 164.13C88.4748 161.947 95.4795 165.491 95.0578 161.043C94.6362 156.595 99.3559 159.819 100.009 155.466C100.662 151.114 94.3301 152.379 97.0096 149.006C99.6891 145.632 97.5537 141.226 93.4461 141.178C89.3385 141.13 90.5013 146.408 86.965 144.014C83.075 141.382 79.8651 143.708 79.8515 147.217C79.8378 150.726 76.5939 148.747 75.2814 152.426C73.554 157.268 81.4768 157.792 79.9059 160.669C78.3349 163.546 82.2386 167.721 86.1217 164.13Z" fill="#1F263E"/>
<path d="M86.5434 162.368C89.1752 159.015 94.3641 163.98 94.0241 160.219C93.6841 156.458 98.7846 158.723 98.329 155.023C97.8733 151.324 92.3103 151.181 95.3842 149.195C98.4581 147.209 96.6764 142.578 93.1876 142.537C89.6988 142.497 90.2701 147.345 87.271 145.319C83.9795 143.088 81.2592 145.06 81.2456 148.039C81.232 151.018 78.1921 149.399 76.5599 152.31C73.7308 157.302 83.2518 156.506 80.7967 159.92C79.1578 162.164 83.1498 166.687 86.5434 162.368Z" fill="#1F263E"/>
<path opacity="0.4" d="M86.7949 161.558C88.944 158.627 93.5073 162.714 93.0924 159.517C92.6775 156.321 97.0981 158.11 96.6152 154.968C96.1323 151.826 91.3855 151.86 93.9425 150.085C96.4996 148.31 94.8606 144.406 91.9023 144.468C88.944 144.529 89.5561 148.65 86.9378 147.004C84.0679 145.195 81.8033 146.957 81.8781 149.486C81.9528 152.016 79.3142 150.758 78.0017 153.254C75.7302 157.593 83.8231 156.654 81.8236 159.626C80.4907 161.592 84.0203 165.339 86.7949 161.558Z" fill="white"/>
<path opacity="0.4" d="M86.1217 164.13C88.4748 161.947 95.4795 165.491 95.0578 161.043C94.6362 156.595 99.3559 159.819 100.009 155.466C100.662 151.114 94.3301 152.379 97.0096 149.006C99.6891 145.632 97.5537 141.226 93.4461 141.178C89.3385 141.13 90.5013 146.408 86.965 144.014C83.075 141.382 79.8651 143.708 79.8515 147.217C79.8378 150.726 76.5939 148.747 75.2814 152.426C73.554 157.268 81.4768 157.792 79.9059 160.669C78.3349 163.546 82.2386 167.721 86.1217 164.13Z" fill="white"/>
<path d="M117.9 157.004C118.648 153.883 126.443 152.95 123.626 149.482C120.81 146.013 126.525 146.08 124.656 142.096C122.787 138.111 118.218 142.673 118.579 138.381C118.94 134.088 114.72 131.604 111.274 133.841C107.829 136.078 111.722 139.826 107.452 139.793C102.755 139.759 101.373 143.474 103.306 146.402C105.24 149.331 101.443 149.481 102.39 153.271C103.636 158.259 110.521 154.303 110.808 157.568C111.094 160.834 116.658 162.146 117.9 157.004Z" fill="#1F263E"/>
<path opacity="0.4" d="M117.9 157.004C118.648 153.883 126.443 152.95 123.626 149.482C120.81 146.013 126.525 146.08 124.656 142.096C122.787 138.111 118.218 142.673 118.579 138.381C118.94 134.088 114.72 131.604 111.274 133.841C107.829 136.078 111.722 139.826 107.452 139.793C102.755 139.759 101.373 143.474 103.306 146.402C105.24 149.331 101.443 149.481 102.39 153.271C103.636 158.259 110.521 154.303 110.808 157.568C111.094 160.834 116.658 162.146 117.9 157.004Z" fill="white"/>
<path d="M117.275 155.304C117.607 151.054 124.677 152.31 122.31 149.369C119.942 146.427 125.443 145.485 123.013 142.658C120.583 139.831 115.874 142.796 117.332 139.439C118.79 136.083 114.74 133.215 111.813 135.115C108.887 137.015 112.05 140.734 108.43 140.71C104.454 140.677 103.283 143.827 104.923 146.313C106.563 148.8 103.135 149.138 103.39 152.465C103.802 158.188 111.286 152.249 111.134 156.451C111.014 159.228 116.844 160.779 117.275 155.304Z" fill="#1F263E"/>
<path opacity="0.4" d="M117.034 154.49C117.198 150.859 123.262 151.732 121.145 149.301C119.028 146.871 123.699 145.909 121.555 143.562C119.412 141.214 115.48 143.874 116.624 140.979C117.769 138.084 114.241 135.744 111.813 137.434C109.384 139.125 112.178 142.216 109.086 142.297C105.695 142.382 104.786 145.104 106.251 147.168C107.715 149.232 104.822 149.648 105.113 152.452C105.627 157.323 111.843 152.056 111.826 155.638C111.806 158.013 116.82 159.175 117.034 154.49Z" fill="white"/>
<path opacity="0.4" d="M117.9 157.004C118.648 153.883 126.443 152.95 123.626 149.482C120.81 146.013 126.525 146.08 124.656 142.096C122.787 138.111 118.218 142.673 118.579 138.381C118.94 134.088 114.72 131.604 111.274 133.841C107.829 136.078 111.722 139.826 107.452 139.793C102.755 139.759 101.373 143.474 103.306 146.402C105.24 149.331 101.443 149.481 102.39 153.271C103.636 158.259 110.521 154.303 110.808 157.568C111.094 160.834 116.658 162.146 117.9 157.004Z" fill="white"/>
<path d="M124.681 165.291C127.034 163.108 134.039 166.651 133.617 162.203C133.195 157.755 137.915 160.979 138.568 156.626C139.221 152.274 132.889 153.539 135.569 150.166C138.248 146.793 136.113 142.386 132.005 142.338C127.898 142.291 129.061 147.568 125.524 145.174C121.634 142.542 118.424 144.868 118.411 148.377C118.397 151.886 115.153 149.907 113.841 153.587C112.113 158.429 120.036 158.952 118.465 161.829C116.894 164.706 120.798 168.881 124.681 165.291Z" fill="#1F263E"/>
<path opacity="0.4" d="M124.681 165.291C127.034 163.108 134.039 166.651 133.617 162.203C133.195 157.755 137.915 160.979 138.568 156.626C139.221 152.274 132.889 153.539 135.569 150.166C138.248 146.793 136.113 142.386 132.005 142.338C127.898 142.291 129.061 147.568 125.524 145.174C121.634 142.542 118.424 144.868 118.411 148.377C118.397 151.886 115.153 149.907 113.841 153.587C112.113 158.429 120.036 158.952 118.465 161.829C116.894 164.706 120.798 168.881 124.681 165.291Z" fill="white"/>
<path d="M125.103 163.528C127.735 160.176 132.924 165.14 132.583 161.379C132.243 157.619 137.344 159.883 136.888 156.184C136.433 152.484 130.87 152.341 133.944 150.355C137.017 148.37 135.236 143.738 131.747 143.698C128.258 143.657 128.829 148.506 125.83 146.479C122.539 144.248 119.819 146.221 119.805 149.199C119.791 152.178 116.751 150.56 115.119 153.47C112.29 158.462 121.811 157.666 119.356 161.08C117.717 163.324 121.709 167.847 125.103 163.528Z" fill="#1F263E"/>
<path opacity="0.4" d="M125.354 162.718C127.503 159.787 132.067 163.874 131.652 160.678C131.237 157.481 135.657 159.27 135.175 156.128C134.692 152.986 129.945 153.02 132.502 151.245C135.059 149.47 133.42 145.566 130.462 145.628C127.503 145.689 128.115 149.81 125.497 148.164C122.627 146.355 120.363 148.117 120.437 150.647C120.512 153.176 117.874 151.918 116.561 154.414C114.29 158.753 122.382 157.815 120.383 160.786C119.05 162.752 122.58 166.499 125.354 162.718Z" fill="white"/>
<path opacity="0.4" d="M124.681 165.291C127.034 163.108 134.039 166.651 133.617 162.203C133.195 157.755 137.915 160.979 138.568 156.626C139.221 152.274 132.889 153.539 135.569 150.166C138.248 146.793 136.113 142.386 132.005 142.338C127.898 142.291 129.061 147.568 125.524 145.174C121.634 142.542 118.424 144.868 118.411 148.377C118.397 151.886 115.153 149.907 113.841 153.587C112.113 158.429 120.036 158.952 118.465 161.829C116.894 164.706 120.798 168.881 124.681 165.291Z" fill="white"/>
<path d="M79.9124 159.316C75.8661 156.273 74.7399 151.233 74.2102 147.176C76.6548 147.851 78.3083 148.381 80.5557 149.556C82.803 150.732 88.7533 156.565 85.7412 163.823L79.9124 159.316Z" fill="#1F263E"/>
<g opacity="0.3">
<path d="M79.9124 159.316C75.8661 156.273 74.7399 151.233 74.2102 147.176C76.6548 147.851 78.3083 148.381 80.5557 149.556C82.803 150.732 88.7533 156.565 85.7412 163.823L79.9124 159.316Z" fill="#1F263E"/>
</g>
<path d="M85.876 163.559C85.8829 163.559 85.8897 163.559 85.8965 163.557C85.9435 163.546 85.9721 163.498 85.9606 163.452C84.8768 159.003 81.4542 154.626 78.5941 151.31C78.5627 151.273 78.5082 151.269 78.4707 151.301C78.4346 151.332 78.4305 151.387 78.4618 151.424C81.3097 154.725 84.7159 159.08 85.7915 163.493C85.8011 163.533 85.8365 163.559 85.876 163.559Z" fill="#263238"/>
<path d="M82.4437 155.953C82.5384 155.239 82.9795 153.881 83.3791 153.33C83.7787 152.779 84.9123 152.105 85.5694 151.791C86.1792 151.495 87.4402 151.063 88.1862 151.057H89.3702C90.1161 151.057 91.611 151.453 92.3806 151.732C93.2094 152.028 94.8878 152.788 95.6041 153.36C96.3204 153.931 97.1966 155.227 97.6998 155.95C98.2031 156.672 99.091 157.992 99.3397 158.75C99.5933 159.664 99.6687 160.619 99.5617 161.562C99.4196 162.305 99.0437 163.598 98.6263 164.185C98.07 164.866 97.3913 165.437 96.6253 165.869C95.7044 166.281 94.7188 166.531 93.7126 166.606H92.5286C91.7471 166.606 90.1605 166.224 89.3702 165.934C88.3513 165.561 87.382 165.063 86.4841 164.454C85.6056 163.67 84.8047 162.804 84.0924 161.867C83.4428 160.959 82.9274 159.962 82.562 158.907C82.365 157.935 82.325 156.937 82.4437 155.953Z" fill="#1F263E"/>
<path opacity="0.3" d="M89.3642 151.045C88.6153 151.045 87.3573 151.489 86.7446 151.779C86.1319 152.069 84.9685 152.75 84.5542 153.318C84.1398 153.887 83.7164 155.228 83.6188 155.941C83.5024 156.928 83.5424 157.927 83.7371 158.901C84.1048 159.956 84.6211 160.952 85.2705 161.861C85.9809 162.799 86.7809 163.665 87.6592 164.448C88.5585 165.057 89.5287 165.554 90.5482 165.928C91.3534 166.224 92.9163 166.603 93.7066 166.6C94.7128 166.525 95.6984 166.276 96.6193 165.863C97.3854 165.431 98.064 164.86 98.6203 164.179C99.0377 163.587 99.4136 162.299 99.5557 161.556C99.6627 160.613 99.5873 159.659 99.3337 158.744C99.085 157.986 98.1823 156.643 97.6939 155.944C97.2054 155.245 96.3026 153.916 95.5981 153.354C94.8936 152.791 93.2034 152.022 92.3746 151.726C91.605 151.433 90.1102 151.036 89.3642 151.045Z" fill="white"/>
<path opacity="0.5" d="M89.5152 151.58C88.8196 151.58 87.6444 151.995 87.0761 152.264C86.5078 152.533 85.4274 153.17 85.0366 153.697C84.6459 154.223 84.2582 155.473 84.1664 156.139C84.0573 157.057 84.0943 157.987 84.2759 158.894C84.6197 159.872 85.1001 160.796 85.7027 161.638C86.3636 162.512 87.1092 163.318 87.9286 164.045C88.7645 164.615 89.6672 165.08 90.6164 165.43C91.5648 165.766 92.5529 165.976 93.5557 166.055C94.4929 165.987 95.4107 165.755 96.2671 165.368C96.9807 164.967 97.6131 164.436 98.132 163.802C98.5197 163.258 98.8691 162.05 99.0022 161.36C99.1009 160.482 99.0296 159.592 98.792 158.741C98.5641 158.039 97.7205 156.787 97.2676 156.139C96.8148 155.49 95.9711 154.25 95.3169 153.726C94.6628 153.202 93.088 152.486 92.3184 152.211C91.602 151.953 90.2078 151.574 89.5152 151.58Z" fill="white"/>
<path d="M95.838 161.985C95.838 161.985 93.0289 160.046 92.7743 159.131C92.4783 158.107 94.4023 155.875 94.4023 155.875C94.7545 156.277 95.0798 156.703 95.3762 157.148C95.7469 157.649 96.0625 158.189 96.3175 158.758C96.4648 159.284 96.509 159.834 96.4477 160.377C96.354 160.907 96.1719 161.417 95.909 161.887C95.8874 161.921 95.8637 161.954 95.838 161.985Z" fill="#1F263E"/>
<path d="M91.3387 158.11C90.2909 158.11 87.3426 155.508 87.3426 155.508C87.3708 155.457 87.4025 155.407 87.4374 155.36C87.7957 154.985 88.2241 154.683 88.6983 154.472C89.1732 154.247 89.6826 154.104 90.205 154.049C90.7969 154.102 91.3791 154.234 91.9367 154.44C92.5909 154.675 93.2141 154.989 93.7926 155.375L93.8636 155.437C93.8636 155.437 92.3895 158.098 91.3387 158.11Z" fill="#1F263E"/>
<path d="M91.9041 160.139C92.8128 160.139 95.391 162.344 95.391 162.344C95.1273 162.608 94.8285 162.834 94.503 163.016C93.9733 163.254 93.4065 163.398 92.8276 163.442C92.2066 163.391 91.5948 163.261 91.0072 163.054C90.5418 162.878 90.0923 162.662 89.6633 162.409C89.6633 162.409 90.9953 160.151 91.9041 160.139Z" fill="#1F263E"/>
<path d="M86.6855 157.166C86.7562 156.75 86.8796 156.345 87.0525 155.961C87.0525 155.961 90.1813 158.134 90.4773 159.155C90.7348 160.07 89.018 162.062 89.018 162.062C88.5115 161.615 88.0505 161.119 87.6416 160.582C87.2651 160.062 86.9659 159.491 86.7536 158.885C86.6396 158.319 86.6166 157.739 86.6855 157.166Z" fill="#1F263E"/>
<g opacity="0.3">
<path d="M95.838 161.985C95.838 161.985 93.0289 160.046 92.7743 159.131C92.4783 158.107 94.4023 155.875 94.4023 155.875C94.7545 156.277 95.0798 156.703 95.3762 157.148C95.7469 157.649 96.0625 158.189 96.3175 158.758C96.4648 159.284 96.509 159.834 96.4477 160.377C96.354 160.907 96.1719 161.417 95.909 161.887C95.8874 161.921 95.8637 161.954 95.838 161.985Z" fill="white"/>
<path d="M91.3387 158.11C90.2909 158.11 87.3426 155.508 87.3426 155.508C87.3708 155.457 87.4025 155.407 87.4374 155.36C87.7957 154.985 88.2241 154.683 88.6983 154.472C89.1732 154.247 89.6826 154.104 90.205 154.049C90.7969 154.102 91.3791 154.234 91.9367 154.44C92.5909 154.675 93.2141 154.989 93.7926 155.375L93.8636 155.437C93.8636 155.437 92.3895 158.098 91.3387 158.11Z" fill="white"/>
<path d="M91.9041 160.137C92.8128 160.137 95.391 162.342 95.391 162.342C95.1273 162.606 94.8285 162.832 94.503 163.014C93.9733 163.252 93.4065 163.396 92.8276 163.44C92.2066 163.39 91.5948 163.259 91.0072 163.052C90.5418 162.876 90.0923 162.66 89.6633 162.407C89.6633 162.407 90.9953 160.149 91.9041 160.137Z" fill="white"/>
<path d="M86.6855 157.166C86.7562 156.75 86.8796 156.345 87.0525 155.961C87.0525 155.961 90.1813 158.134 90.4773 159.155C90.7348 160.07 89.018 162.062 89.018 162.062C88.5115 161.615 88.0505 161.119 87.6416 160.582C87.2651 160.062 86.9659 159.491 86.7536 158.885C86.6396 158.319 86.6166 157.739 86.6855 157.166Z" fill="white"/>
</g>
<g opacity="0.5">
<path d="M95.2903 159.479C95.6485 159.553 95.7876 159.419 95.7788 159.212C95.7699 159.005 95.6159 158.813 95.2578 158.736C94.8996 158.659 94.6184 158.768 94.6273 158.972C94.6362 159.177 94.9174 159.405 95.2903 159.479Z" fill="white"/>
<path d="M95.0239 160.771C95.3554 160.925 95.5301 160.842 95.5774 160.664C95.6248 160.487 95.5242 160.283 95.1926 160.129C94.8611 159.975 94.5533 159.996 94.5059 160.173C94.4586 160.351 94.6894 160.608 95.0239 160.771Z" fill="white"/>
<path d="M94.8315 157.858C95.0802 157.784 95.1128 157.624 95.024 157.461C94.9299 157.275 94.7095 157.19 94.5149 157.266C94.2632 157.337 94.133 157.529 94.2188 157.692C94.3659 157.874 94.6129 157.941 94.8315 157.858Z" fill="white"/>
<path d="M89.8498 156.014C89.6515 155.771 89.468 155.736 89.3377 155.816C89.2075 155.896 89.1867 156.058 89.3821 156.304C89.5775 156.55 89.8438 156.68 89.9741 156.6C90.1043 156.52 90.0451 156.26 89.8498 156.014Z" fill="white"/>
<path d="M92.2712 156.246C92.3192 156.044 92.2067 155.838 92.0107 155.769C91.836 155.701 91.6791 155.754 91.6377 156.009C91.5795 156.239 91.6795 156.48 91.8834 156.601C92.058 156.654 92.2297 156.5 92.2712 156.246Z" fill="white"/>
<path d="M91.3653 157.097C91.2647 156.802 91.0693 156.665 90.8828 156.674C90.6964 156.683 90.5868 156.819 90.6816 157.13C90.7763 157.441 91.013 157.684 91.1995 157.675C91.386 157.666 91.4541 157.408 91.3653 157.097Z" fill="white"/>
<path d="M93.8814 159.722C94.1774 159.787 94.2899 159.68 94.2869 159.514C94.284 159.349 94.1626 159.186 93.8696 159.118C93.5765 159.05 93.3427 159.132 93.3486 159.298C93.3545 159.464 93.5913 159.647 93.8814 159.722Z" fill="white"/>
<path d="M92.6322 162.648C92.7714 162.92 92.9578 162.997 93.1147 162.958C93.2716 162.92 93.3397 162.775 93.2035 162.502C93.0673 162.23 92.8246 162.041 92.6677 162.079C92.5109 162.118 92.4961 162.384 92.6322 162.648Z" fill="white"/>
<path d="M93.8488 162.26C94.053 162.503 94.2395 162.538 94.3668 162.453C94.4941 162.367 94.5177 162.204 94.3135 161.958C94.1093 161.712 93.8428 161.582 93.7215 161.662C93.6002 161.742 93.6475 162.014 93.8488 162.26Z" fill="white"/>
<path d="M92.4102 161.419C92.6293 161.653 92.8128 161.674 92.9312 161.579C93.0496 161.484 93.0585 161.313 92.8424 161.079C92.6263 160.845 92.351 160.729 92.2326 160.824C92.1142 160.919 92.1941 161.2 92.4102 161.419Z" fill="white"/>
<path d="M87.985 157.628C87.6889 157.533 87.5646 157.628 87.5469 157.785C87.5291 157.941 87.6386 158.116 87.9287 158.211C88.2188 158.306 88.4675 158.255 88.4852 158.092C88.503 157.93 88.278 157.722 87.985 157.628Z" fill="white"/>
<path d="M89.3317 158.855C89.0505 158.855 88.9706 158.992 89.015 159.151C89.0801 159.358 89.2823 159.489 89.4975 159.465C89.7787 159.465 89.9711 159.329 89.9267 159.169C89.8823 159.009 89.6159 158.858 89.3317 158.855Z" fill="white"/>
<path d="M87.8607 159.168C87.5646 159.168 87.4995 159.304 87.5439 159.464C87.6079 159.67 87.8091 159.802 88.0234 159.778C88.3195 159.778 88.5 159.639 88.4527 159.482C88.4053 159.325 88.1419 159.168 87.8607 159.168Z" fill="white"/>
<path d="M88.4615 160.254C88.3205 160.337 88.2732 160.518 88.3559 160.659C88.3702 160.684 88.3878 160.706 88.4082 160.725C88.529 160.884 88.7556 160.914 88.9143 160.794L88.9262 160.784C89.1049 160.692 89.1751 160.472 89.083 160.294C89.0759 160.28 89.0681 160.267 89.0594 160.254C88.887 160.108 88.6339 160.108 88.4615 160.254Z" fill="white"/>
<path d="M90.9183 161.402C90.8213 161.579 90.8855 161.8 91.0616 161.897L91.0723 161.903C91.2046 161.999 91.3897 161.969 91.4857 161.837C91.5007 161.816 91.513 161.793 91.5223 161.77C91.6332 161.572 91.5872 161.323 91.4127 161.177C91.247 161.074 91.0249 161.175 90.9183 161.402Z" fill="white"/>
<path d="M90.5513 155.201C90.5361 154.985 90.3714 154.811 90.1575 154.783C89.9829 154.783 89.8616 154.875 89.9148 155.153C89.9681 155.431 90.1546 155.671 90.3322 155.683C90.5098 155.695 90.6045 155.482 90.5513 155.201Z" fill="white"/>
</g>
<path d="M97.8215 148.059C96.6058 143.144 98.9154 138.525 101.067 135.045C102.536 137.112 103.483 138.567 104.483 140.898C105.484 143.228 106.414 151.509 99.4947 155.235L97.8215 148.059Z" fill="#1F263E"/>
<path d="M99.821 155.135C99.8537 155.135 99.8851 155.116 99.9001 155.085C101.869 150.951 101.979 145.396 101.856 141.018C101.854 140.971 101.815 140.934 101.768 140.934H101.766C101.718 140.935 101.68 140.975 101.681 141.024C101.805 145.381 101.696 150.909 99.7419 155.01C99.7215 155.054 99.7399 155.106 99.7835 155.127C99.7958 155.132 99.8081 155.135 99.821 155.135Z" fill="#263238"/>
<path d="M108.602 161.205C110.397 159.72 111.349 157.278 111.035 154.97C110.721 152.662 109.15 150.564 107.023 149.613C105.869 149.097 104.556 148.889 103.552 148.121C102.343 147.197 101.762 145.593 100.477 144.779C98.8169 143.729 96.2786 144.623 95.6433 146.482C95.1376 147.961 95.7375 149.562 95.8777 151.12C96.043 152.955 95.5586 154.814 95.8162 156.64C96.1136 158.748 97.4348 161.174 99.177 162.399C104.027 165.807 107.275 161.854 108.602 161.205Z" fill="#263238"/>
<g opacity="0.6">
<path d="M108.602 161.205C110.397 159.72 111.349 157.278 111.035 154.97C110.721 152.662 109.15 150.564 107.023 149.613C105.869 149.097 104.556 148.889 103.552 148.121C102.343 147.197 101.762 145.593 100.477 144.779C98.8169 143.729 96.2786 144.623 95.6433 146.482C95.1376 147.961 95.7375 149.562 95.8777 151.12C96.043 152.955 95.5586 154.814 95.8162 156.64C96.1136 158.748 97.4348 161.174 99.177 162.399C104.027 165.807 107.275 161.854 108.602 161.205Z" fill="white"/>
</g>
<path opacity="0.3" d="M99.4114 158.719C100.708 161.075 103.669 161.933 106.024 160.636C108.379 159.339 109.238 156.378 107.941 154.023C106.644 151.668 103.683 150.81 101.328 152.106C98.9727 153.403 98.1146 156.364 99.4114 158.719Z" fill="#1F263E"/>
<path opacity="0.3" d="M108.595 158.76C108.595 158.76 103.096 158.977 101.418 153.891C99.7392 148.805 103.93 145.641 103.93 145.641C103.93 145.641 105.481 146.317 105.56 146.462C105.639 146.607 108.595 158.76 108.595 158.76Z" fill="#1F263E"/>
<path d="M120.948 153.679C124.727 150.31 125.43 145.194 125.62 141.107C123.24 141.984 121.637 142.649 119.495 144.007C117.353 145.365 111.909 151.673 115.514 158.656L120.948 153.679Z" fill="#1F263E"/>
<g opacity="0.3">
<path d="M120.948 153.679C124.727 150.31 125.43 145.194 125.62 141.107C123.24 141.984 121.637 142.649 119.495 144.007C117.353 145.365 111.909 151.673 115.514 158.656L120.948 153.679Z" fill="#1F263E"/>
</g>
<path d="M115.35 158.404C115.392 158.404 115.43 158.373 115.436 158.33C116.141 153.843 119.173 149.22 121.737 145.693C121.765 145.655 121.756 145.6 121.717 145.571C121.681 145.543 121.625 145.551 121.595 145.591C119.021 149.133 115.975 153.779 115.264 158.303C115.257 158.351 115.289 158.395 115.337 158.403C115.341 158.404 115.346 158.404 115.35 158.404Z" fill="#263238"/>
<path d="M112.027 157.942C114.315 157.507 116.327 155.828 117.165 153.654C118.003 151.48 117.638 148.885 116.234 147.027C115.472 146.017 114.423 145.202 113.913 144.045C113.3 142.652 113.565 140.967 112.831 139.634C111.884 137.914 109.229 137.473 107.776 138.794C106.619 139.847 106.373 141.538 105.744 142.97C105.004 144.658 103.683 146.053 103.028 147.776C102.272 149.767 102.259 152.529 103.195 154.442C105.799 159.767 110.551 157.87 112.027 157.942Z" fill="#263238"/>
<g opacity="0.6">
<path d="M112.027 157.942C114.315 157.507 116.327 155.828 117.165 153.654C118.003 151.48 117.638 148.885 116.234 147.027C115.472 146.017 114.423 145.202 113.913 144.045C113.3 142.652 113.565 140.967 112.831 139.634C111.884 137.914 109.229 137.473 107.776 138.794C106.619 139.847 106.373 141.538 105.744 142.97C105.004 144.658 103.683 146.053 103.028 147.776C102.272 149.767 102.259 152.529 103.195 154.442C105.799 159.767 110.551 157.87 112.027 157.942Z" fill="white"/>
</g>
<path opacity="0.3" d="M110.043 156.202C107.354 156.202 105.174 154.022 105.174 151.333C105.174 148.644 107.354 146.465 110.043 146.465C112.732 146.465 114.911 148.644 114.911 151.333C114.911 154.022 112.732 156.202 110.043 156.202Z" fill="#1F263E"/>
<path d="M107.942 162.01C104.163 158.641 103.46 153.524 103.269 149.438C105.649 150.314 107.253 150.979 109.395 152.337C111.536 153.696 116.981 160.003 113.376 166.986L107.942 162.01Z" fill="#1F263E"/>
<path d="M113.539 166.734C113.543 166.734 113.548 166.734 113.553 166.733C113.6 166.725 113.632 166.681 113.625 166.633C112.916 162.111 109.869 157.464 107.294 153.921C107.265 153.881 107.21 153.874 107.172 153.901C107.134 153.93 107.125 153.984 107.153 154.023C109.716 157.55 112.749 162.175 113.453 166.661C113.459 166.704 113.497 166.734 113.539 166.734Z" fill="#263238"/>
<path d="M93.9361 165.824C90.1569 162.455 89.4537 157.339 89.2633 153.252C91.6432 154.128 93.247 154.794 95.3888 156.152C97.5306 157.51 102.975 163.818 99.3699 170.8L93.9361 165.824Z" fill="#1F263E"/>
<path d="M99.5334 170.549C99.5375 170.549 99.5423 170.549 99.547 170.547C99.5947 170.54 99.6268 170.495 99.6193 170.448C98.9097 165.924 95.8627 161.278 93.2882 157.735C93.2589 157.695 93.2037 157.689 93.1662 157.715C93.1273 157.744 93.1185 157.798 93.1464 157.837C95.7101 161.364 98.7434 165.988 99.4475 170.475C99.4536 170.518 99.4911 170.549 99.5334 170.549Z" fill="#263238"/>
<path d="M127.225 157.124C127.064 152.064 130.288 148.029 133.12 145.076C134.124 147.405 134.746 149.026 135.237 151.514C135.728 154.002 134.906 162.294 127.361 164.491L127.225 157.124Z" fill="#1F263E"/>
<path d="M127.719 164.462C127.745 164.462 127.771 164.451 127.788 164.428C130.579 160.798 131.848 155.388 132.642 151.081C132.651 151.034 132.619 150.988 132.572 150.979C132.526 150.973 132.479 151.002 132.47 151.05C131.679 155.337 130.417 160.721 127.65 164.322C127.62 164.36 127.628 164.415 127.666 164.444C127.682 164.456 127.701 164.462 127.719 164.462Z" fill="#263238"/>
<path d="M112.769 154.777C112.863 154.063 113.305 152.705 113.704 152.154C114.104 151.604 115.237 150.929 115.895 150.615C116.504 150.319 117.765 149.887 118.511 149.881H119.695C120.441 149.881 121.936 150.278 122.706 150.556C123.534 150.852 125.213 151.613 125.929 152.184C126.646 152.755 127.522 154.052 128.025 154.774C128.528 155.496 129.416 156.816 129.665 157.574C129.918 158.489 129.994 159.443 129.887 160.386C129.745 161.129 129.369 162.423 128.951 163.009C128.395 163.69 127.716 164.261 126.95 164.693C126.029 165.105 125.044 165.355 124.038 165.43H122.854C122.072 165.43 120.486 165.048 119.695 164.758C118.676 164.385 117.707 163.888 116.809 163.278C115.931 162.495 115.13 161.628 114.417 160.691C113.768 159.783 113.252 158.786 112.887 157.731C112.69 156.759 112.65 155.762 112.769 154.777Z" fill="#1F263E"/>
<path opacity="0.3" d="M119.689 149.869C118.94 149.869 117.682 150.313 117.07 150.603C116.457 150.893 115.294 151.574 114.879 152.143C114.465 152.711 114.041 154.052 113.944 154.765C113.827 155.752 113.867 156.751 114.062 157.725C114.43 158.78 114.946 159.777 115.595 160.685C116.306 161.623 117.106 162.49 117.984 163.272C118.883 163.881 119.854 164.378 120.873 164.752C121.678 165.048 123.241 165.427 124.032 165.424C125.038 165.349 126.023 165.1 126.944 164.687C127.71 164.255 128.389 163.684 128.945 163.003C129.363 162.411 129.739 161.123 129.881 160.38C129.988 159.438 129.912 158.483 129.659 157.568C129.41 156.811 128.507 155.467 128.019 154.768C127.53 154.07 126.628 152.741 125.923 152.178C125.219 151.616 123.528 150.846 122.7 150.55C121.93 150.257 120.435 149.86 119.689 149.869Z" fill="white"/>
<path opacity="0.5" d="M119.84 150.404C119.145 150.404 117.97 150.819 117.401 151.088C116.833 151.357 115.752 151.994 115.362 152.521C114.971 153.048 114.583 154.297 114.491 154.963C114.382 155.881 114.419 156.812 114.601 157.719C114.945 158.696 115.425 159.62 116.028 160.463C116.689 161.336 117.434 162.142 118.254 162.869C119.09 163.439 119.992 163.904 120.941 164.254C121.89 164.59 122.878 164.8 123.881 164.879C124.818 164.811 125.736 164.579 126.592 164.192C127.306 163.791 127.938 163.26 128.457 162.626C128.845 162.082 129.194 160.874 129.327 160.184C129.426 159.306 129.355 158.416 129.117 157.565C128.889 156.863 128.046 155.611 127.593 154.963C127.14 154.315 126.296 153.074 125.642 152.55C124.988 152.026 123.413 151.31 122.644 151.035C121.927 150.777 120.533 150.398 119.84 150.404Z" fill="white"/>
<path d="M126.163 160.809C126.163 160.809 123.354 158.87 123.099 157.955C122.803 156.931 124.727 154.699 124.727 154.699C125.08 155.102 125.405 155.527 125.701 155.972C126.072 156.473 126.388 157.013 126.643 157.582C126.79 158.109 126.834 158.658 126.773 159.201C126.679 159.731 126.497 160.242 126.234 160.711C126.213 160.745 126.189 160.778 126.163 160.809Z" fill="#1F263E"/>
<path d="M121.664 156.934C120.616 156.934 117.668 154.332 117.668 154.332C117.696 154.281 117.727 154.231 117.762 154.184C118.121 153.809 118.549 153.507 119.023 153.296C119.498 153.071 120.008 152.928 120.53 152.873C121.122 152.927 121.704 153.058 122.262 153.264C122.916 153.499 123.539 153.813 124.118 154.199L124.189 154.261C124.189 154.261 122.715 156.922 121.664 156.934Z" fill="#1F263E"/>
<path d="M122.229 158.963C123.138 158.963 125.716 161.168 125.716 161.168C125.452 161.432 125.154 161.658 124.828 161.84C124.298 162.078 123.732 162.222 123.153 162.266C122.532 162.216 121.92 162.085 121.332 161.879C120.867 161.702 120.417 161.486 119.988 161.233C119.988 161.233 121.32 158.975 122.229 158.963Z" fill="#1F263E"/>
<path d="M117.011 155.99C117.081 155.574 117.205 155.17 117.378 154.785C117.378 154.785 120.506 156.958 120.802 157.979C121.06 158.894 119.343 160.886 119.343 160.886C118.837 160.439 118.376 159.943 117.967 159.406C117.59 158.886 117.291 158.315 117.079 157.71C116.965 157.144 116.942 156.563 117.011 155.99Z" fill="#1F263E"/>
<g opacity="0.3">
<path d="M126.163 160.809C126.163 160.809 123.354 158.87 123.099 157.955C122.803 156.931 124.727 154.699 124.727 154.699C125.08 155.102 125.405 155.527 125.701 155.972C126.072 156.473 126.388 157.013 126.643 157.582C126.79 158.109 126.834 158.658 126.773 159.201C126.679 159.731 126.497 160.242 126.234 160.711C126.213 160.745 126.189 160.778 126.163 160.809Z" fill="white"/>
<path d="M121.664 156.934C120.616 156.934 117.668 154.332 117.668 154.332C117.696 154.281 117.727 154.231 117.762 154.184C118.121 153.809 118.549 153.507 119.023 153.296C119.498 153.071 120.008 152.928 120.53 152.873C121.122 152.927 121.704 153.058 122.262 153.264C122.916 153.499 123.539 153.813 124.118 154.199L124.189 154.261C124.189 154.261 122.715 156.922 121.664 156.934Z" fill="white"/>
<path d="M122.229 158.961C123.138 158.961 125.716 161.166 125.716 161.166C125.452 161.43 125.154 161.656 124.828 161.838C124.298 162.076 123.732 162.22 123.153 162.264C122.532 162.214 121.92 162.083 121.332 161.877C120.867 161.7 120.417 161.484 119.988 161.231C119.988 161.231 121.32 158.973 122.229 158.961Z" fill="white"/>
<path d="M117.01 155.99C117.081 155.574 117.205 155.17 117.377 154.785C117.377 154.785 120.506 156.958 120.802 157.979C121.06 158.894 119.343 160.886 119.343 160.886C118.837 160.439 118.375 159.943 117.967 159.406C117.59 158.886 117.291 158.315 117.079 157.71C116.965 157.144 116.942 156.563 117.01 155.99Z" fill="white"/>
</g>
<g opacity="0.5">
<path d="M125.615 158.303C125.974 158.377 126.113 158.244 126.104 158.036C126.095 157.829 125.941 157.637 125.583 157.56C125.225 157.483 124.943 157.592 124.952 157.797C124.961 158.001 125.243 158.229 125.615 158.303Z" fill="white"/>
<path d="M125.349 159.595C125.681 159.749 125.855 159.666 125.903 159.489C125.95 159.311 125.849 159.107 125.518 158.953C125.186 158.799 124.878 158.82 124.831 158.997C124.784 159.175 125.015 159.432 125.349 159.595Z" fill="white"/>
<path d="M125.157 156.682C125.405 156.608 125.438 156.448 125.349 156.286C125.255 156.099 125.035 156.014 124.84 156.09C124.588 156.161 124.458 156.354 124.544 156.516C124.691 156.698 124.938 156.765 125.157 156.682Z" fill="white"/>
<path d="M120.175 154.838C119.976 154.595 119.793 154.56 119.663 154.64C119.532 154.72 119.512 154.883 119.707 155.128C119.902 155.374 120.169 155.504 120.299 155.424C120.429 155.344 120.37 155.084 120.175 154.838Z" fill="white"/>
<path d="M122.596 155.07C122.644 154.868 122.532 154.662 122.336 154.594C122.161 154.525 122.004 154.579 121.963 154.833C121.905 155.063 122.005 155.304 122.208 155.425C122.383 155.479 122.555 155.325 122.596 155.07Z" fill="white"/>
<path d="M121.69 155.922C121.59 155.626 121.394 155.49 121.208 155.498C121.021 155.507 120.912 155.643 121.007 155.954C121.101 156.265 121.338 156.508 121.525 156.499C121.711 156.49 121.779 156.233 121.69 155.922Z" fill="white"/>
<path d="M124.206 158.546C124.502 158.611 124.615 158.504 124.612 158.338C124.609 158.173 124.488 158.01 124.195 157.942C123.902 157.874 123.668 157.957 123.674 158.122C123.68 158.288 123.916 158.472 124.206 158.546Z" fill="white"/>
<path d="M122.957 161.472C123.096 161.744 123.283 161.821 123.44 161.783C123.597 161.744 123.665 161.599 123.529 161.327C123.392 161.054 123.15 160.865 122.993 160.903C122.836 160.942 122.821 161.208 122.957 161.472Z" fill="white"/>
<path d="M124.174 161.084C124.378 161.327 124.565 161.363 124.692 161.277C124.819 161.191 124.843 161.028 124.639 160.782C124.434 160.537 124.168 160.406 124.047 160.486C123.925 160.566 123.973 160.839 124.174 161.084Z" fill="white"/>
<path d="M122.735 160.243C122.954 160.477 123.138 160.498 123.256 160.403C123.375 160.308 123.384 160.137 123.167 159.903C122.951 159.669 122.676 159.554 122.558 159.648C122.439 159.743 122.519 160.024 122.735 160.243Z" fill="white"/>
<path d="M118.31 156.452C118.014 156.357 117.89 156.452 117.872 156.609C117.854 156.766 117.964 156.94 118.254 157.035C118.544 157.13 118.793 157.079 118.81 156.917C118.828 156.754 118.603 156.547 118.31 156.452Z" fill="white"/>
<path d="M119.657 157.68C119.376 157.68 119.296 157.816 119.34 157.976C119.405 158.182 119.607 158.314 119.823 158.289C120.104 158.289 120.296 158.153 120.252 157.993C120.207 157.834 119.941 157.683 119.657 157.68Z" fill="white"/>
<path d="M118.186 157.992C117.89 157.992 117.825 158.128 117.869 158.288C117.933 158.494 118.134 158.626 118.349 158.602C118.645 158.602 118.825 158.463 118.778 158.306C118.73 158.149 118.467 157.992 118.186 157.992Z" fill="white"/>
<path d="M118.787 159.077C118.646 159.159 118.598 159.341 118.681 159.482C118.695 159.506 118.713 159.528 118.733 159.547C118.854 159.706 119.081 159.737 119.239 159.616L119.251 159.606C119.43 159.514 119.5 159.295 119.408 159.116C119.401 159.102 119.393 159.089 119.385 159.077C119.212 158.93 118.959 158.93 118.787 159.077Z" fill="white"/>
<path d="M121.243 160.227C121.146 160.403 121.211 160.624 121.387 160.721L121.397 160.727C121.53 160.823 121.715 160.793 121.811 160.661C121.826 160.64 121.838 160.618 121.847 160.594C121.958 160.396 121.912 160.147 121.738 160.002C121.572 159.898 121.35 159.999 121.243 160.227Z" fill="white"/>
<path d="M120.876 154.025C120.861 153.81 120.697 153.635 120.483 153.607C120.308 153.607 120.187 153.699 120.24 153.977C120.293 154.256 120.48 154.495 120.657 154.507C120.835 154.519 120.93 154.306 120.876 154.025Z" fill="white"/>
</g>
<path d="M102.924 162.865C103.018 162.151 103.459 160.793 103.859 160.242C104.259 159.691 105.392 159.017 106.049 158.703C106.659 158.407 107.92 157.975 108.666 157.969H109.85C110.596 157.969 112.091 158.365 112.861 158.644C113.689 158.94 115.368 159.7 116.084 160.272C116.8 160.843 117.677 162.139 118.18 162.862C118.683 163.584 119.571 164.904 119.82 165.662C120.073 166.576 120.149 167.531 120.042 168.474C119.9 169.217 119.524 170.51 119.106 171.097C118.55 171.778 117.871 172.349 117.105 172.781C116.184 173.193 115.199 173.443 114.193 173.518H113.009C112.227 173.518 110.641 173.136 109.85 172.846C108.831 172.473 107.862 171.976 106.964 171.366C106.086 170.582 105.285 169.716 104.572 168.779C103.923 167.871 103.407 166.874 103.042 165.819C102.845 164.847 102.805 163.849 102.924 162.865Z" fill="#1F263E"/>
<path opacity="0.3" d="M109.844 157.957C109.095 157.957 107.837 158.401 107.225 158.691C106.612 158.981 105.449 159.662 105.034 160.23C104.62 160.799 104.196 162.14 104.099 162.853C103.982 163.84 104.022 164.839 104.217 165.813C104.585 166.868 105.101 167.865 105.75 168.773C106.461 169.711 107.261 170.577 108.139 171.36C109.038 171.969 110.009 172.466 111.028 172.84C111.833 173.136 113.396 173.515 114.187 173.512C115.193 173.437 116.178 173.188 117.099 172.775C117.865 172.343 118.544 171.772 119.1 171.091C119.518 170.499 119.894 169.211 120.036 168.468C120.143 167.525 120.067 166.571 119.814 165.656C119.565 164.898 118.662 163.555 118.174 162.856C117.685 162.157 116.783 160.828 116.078 160.266C115.374 159.704 113.683 158.934 112.855 158.638C112.085 158.345 110.59 157.948 109.844 157.957Z" fill="white"/>
<path opacity="0.5" d="M109.995 158.492C109.3 158.492 108.124 158.907 107.556 159.176C106.988 159.445 105.907 160.082 105.517 160.609C105.126 161.136 104.738 162.385 104.646 163.051C104.537 163.969 104.574 164.899 104.756 165.807C105.1 166.784 105.58 167.708 106.183 168.551C106.844 169.424 107.589 170.23 108.409 170.957C109.244 171.527 110.147 171.992 111.096 172.342C112.045 172.678 113.033 172.888 114.036 172.967C114.973 172.899 115.891 172.667 116.747 172.28C117.461 171.879 118.093 171.348 118.612 170.714C119 170.17 119.349 168.962 119.482 168.272C119.581 167.394 119.51 166.504 119.272 165.653C119.044 164.951 118.2 163.699 117.748 163.051C117.295 162.402 116.451 161.162 115.797 160.638C115.143 160.114 113.568 159.398 112.798 159.123C112.082 158.865 110.688 158.486 109.995 158.492Z" fill="white"/>
<path d="M116.318 168.897C116.318 168.897 113.509 166.958 113.254 166.043C112.958 165.019 114.882 162.787 114.882 162.787C115.234 163.19 115.56 163.615 115.856 164.06C116.227 164.561 116.542 165.101 116.797 165.67C116.945 166.196 116.989 166.746 116.928 167.289C116.834 167.819 116.652 168.33 116.389 168.799C116.367 168.833 116.344 168.866 116.318 168.897Z" fill="#1F263E"/>
<path d="M111.819 165.022C110.771 165.022 107.823 162.42 107.823 162.42C107.851 162.369 107.882 162.319 107.917 162.272C108.276 161.897 108.704 161.595 109.178 161.384C109.653 161.159 110.162 161.016 110.685 160.961C111.277 161.014 111.859 161.146 112.417 161.352C113.071 161.587 113.694 161.901 114.273 162.287L114.344 162.349C114.344 162.349 112.87 165.01 111.819 165.022Z" fill="#1F263E"/>
<path d="M112.384 167.051C113.293 167.051 115.871 169.256 115.871 169.256C115.607 169.52 115.309 169.746 114.983 169.928C114.453 170.166 113.886 170.31 113.308 170.354C112.687 170.304 112.075 170.173 111.487 169.966C111.022 169.79 110.572 169.574 110.143 169.321C110.143 169.321 111.475 167.063 112.384 167.051Z" fill="#1F263E"/>
<path d="M107.165 164.078C107.236 163.662 107.359 163.257 107.532 162.873C107.532 162.873 110.661 165.046 110.957 166.067C111.215 166.982 109.498 168.974 109.498 168.974C108.991 168.527 108.53 168.031 108.122 167.494C107.745 166.974 107.446 166.403 107.234 165.798C107.12 165.232 107.097 164.651 107.165 164.078Z" fill="#1F263E"/>
<g opacity="0.3">
<path d="M116.318 168.897C116.318 168.897 113.509 166.958 113.254 166.043C112.958 165.019 114.882 162.787 114.882 162.787C115.234 163.19 115.56 163.615 115.856 164.06C116.227 164.561 116.542 165.101 116.797 165.67C116.945 166.196 116.989 166.746 116.928 167.289C116.834 167.819 116.652 168.33 116.389 168.799C116.367 168.833 116.344 168.866 116.318 168.897Z" fill="white"/>
<path d="M111.819 165.022C110.771 165.022 107.823 162.42 107.823 162.42C107.851 162.369 107.882 162.319 107.917 162.272C108.276 161.897 108.704 161.595 109.178 161.384C109.653 161.159 110.162 161.016 110.685 160.961C111.277 161.014 111.859 161.146 112.417 161.352C113.071 161.587 113.694 161.901 114.273 162.287L114.344 162.349C114.344 162.349 112.87 165.01 111.819 165.022Z" fill="white"/>
<path d="M112.384 167.049C113.293 167.049 115.871 169.254 115.871 169.254C115.607 169.518 115.309 169.744 114.983 169.926C114.453 170.164 113.886 170.308 113.308 170.352C112.687 170.302 112.075 170.171 111.487 169.965C111.022 169.788 110.572 169.572 110.143 169.319C110.143 169.319 111.475 167.061 112.384 167.049Z" fill="white"/>
<path d="M107.165 164.078C107.236 163.662 107.359 163.257 107.532 162.873C107.532 162.873 110.661 165.046 110.957 166.067C111.215 166.982 109.498 168.974 109.498 168.974C108.991 168.527 108.53 168.031 108.122 167.494C107.745 166.974 107.446 166.403 107.234 165.798C107.12 165.232 107.097 164.651 107.165 164.078Z" fill="white"/>
</g>
<g opacity="0.5">
<path d="M115.77 166.391C116.129 166.465 116.268 166.331 116.259 166.124C116.25 165.917 116.096 165.725 115.738 165.648C115.38 165.571 115.098 165.68 115.107 165.885C115.116 166.089 115.397 166.317 115.77 166.391Z" fill="white"/>
<path d="M115.504 167.683C115.835 167.837 116.01 167.754 116.057 167.577C116.105 167.399 116.004 167.195 115.673 167.041C115.341 166.887 115.033 166.908 114.986 167.085C114.939 167.263 115.169 167.52 115.504 167.683Z" fill="white"/>
<path d="M115.312 164.77C115.56 164.696 115.593 164.536 115.504 164.373C115.41 164.187 115.19 164.102 114.995 164.178C114.743 164.249 114.613 164.441 114.699 164.604C114.846 164.786 115.093 164.853 115.312 164.77Z" fill="white"/>
<path d="M110.33 162.926C110.131 162.683 109.948 162.648 109.818 162.728C109.687 162.808 109.667 162.971 109.862 163.216C110.057 163.462 110.324 163.592 110.454 163.512C110.584 163.432 110.525 163.172 110.33 162.926Z" fill="white"/>
<path d="M112.751 163.158C112.799 162.956 112.687 162.75 112.491 162.681C112.316 162.613 112.159 162.667 112.118 162.921C112.06 163.151 112.159 163.392 112.363 163.513C112.538 163.566 112.71 163.412 112.751 163.158Z" fill="white"/>
<path d="M111.845 164.01C111.745 163.714 111.549 163.577 111.363 163.586C111.176 163.595 111.067 163.731 111.162 164.042C111.256 164.353 111.493 164.596 111.68 164.587C111.866 164.578 111.934 164.321 111.845 164.01Z" fill="white"/>
<path d="M114.361 166.634C114.657 166.699 114.77 166.592 114.767 166.426C114.764 166.261 114.643 166.098 114.35 166.03C114.056 165.962 113.823 166.045 113.829 166.21C113.835 166.376 114.071 166.56 114.361 166.634Z" fill="white"/>
<path d="M113.112 169.56C113.251 169.832 113.438 169.909 113.595 169.87C113.752 169.832 113.82 169.687 113.683 169.415C113.547 169.142 113.305 168.953 113.148 168.991C112.991 169.03 112.976 169.296 113.112 169.56Z" fill="white"/>
<path d="M114.329 169.172C114.533 169.415 114.72 169.45 114.847 169.365C114.974 169.279 114.998 169.116 114.793 168.87C114.589 168.625 114.323 168.494 114.201 168.574C114.08 168.654 114.127 168.927 114.329 169.172Z" fill="white"/>
<path d="M112.89 168.331C113.109 168.565 113.293 168.586 113.411 168.491C113.53 168.396 113.538 168.225 113.322 167.991C113.106 167.757 112.831 167.642 112.713 167.736C112.594 167.831 112.674 168.112 112.89 168.331Z" fill="white"/>
<path d="M108.465 164.54C108.169 164.445 108.045 164.54 108.027 164.697C108.009 164.854 108.118 165.028 108.409 165.123C108.699 165.218 108.947 165.167 108.965 165.004C108.983 164.842 108.758 164.634 108.465 164.54Z" fill="white"/>
<path d="M109.812 165.768C109.531 165.768 109.451 165.904 109.495 166.064C109.56 166.27 109.762 166.401 109.978 166.377C110.259 166.377 110.451 166.241 110.407 166.081C110.362 165.921 110.096 165.771 109.812 165.768Z" fill="white"/>
<path d="M108.341 166.08C108.044 166.08 107.979 166.216 108.024 166.376C108.088 166.582 108.289 166.714 108.503 166.69C108.799 166.69 108.98 166.551 108.933 166.394C108.885 166.237 108.622 166.08 108.341 166.08Z" fill="white"/>
<path d="M108.941 167.165C108.8 167.247 108.753 167.429 108.836 167.57C108.85 167.594 108.868 167.616 108.888 167.635C109.009 167.794 109.236 167.825 109.394 167.704L109.406 167.694C109.585 167.602 109.655 167.383 109.563 167.204C109.556 167.19 109.548 167.177 109.539 167.165C109.367 167.018 109.114 167.018 108.941 167.165Z" fill="white"/>
<path d="M111.398 168.315C111.301 168.491 111.365 168.712 111.542 168.809L111.552 168.815C111.685 168.911 111.87 168.881 111.966 168.749C111.981 168.728 111.993 168.706 112.002 168.682C112.113 168.484 112.067 168.235 111.893 168.09C111.727 167.986 111.505 168.087 111.398 168.315Z" fill="white"/>
<path d="M111.031 162.113C111.016 161.898 110.851 161.723 110.638 161.695C110.463 161.695 110.342 161.787 110.395 162.065C110.448 162.344 110.635 162.583 110.812 162.595C110.99 162.607 111.084 162.394 111.031 162.113Z" fill="white"/>
</g>
<path d="M107.149 161.703C124.446 161.703 138.526 159.612 139.106 157H139.133C139.133 173.425 124.813 186.739 107.149 186.739C89.4845 186.739 75.1648 173.425 75.1648 157H75.1925C75.7719 159.612 89.8525 161.703 107.149 161.703Z" fill="#1F263E"/>
<path opacity="0.3" d="M107.149 161.703C124.446 161.703 138.526 159.612 139.106 157H139.133C139.133 173.425 124.813 186.739 107.149 186.739C89.4845 186.739 75.1648 173.425 75.1648 157H75.1925C75.7719 159.612 89.8525 161.703 107.149 161.703Z" fill="#1F263E"/>
<path d="M117.518 183.1C117.518 183.1 107.522 168.731 103.601 168.48C99.679 168.229 101.968 173.349 101.968 173.349C101.968 173.349 99.1033 167.87 96.6128 168.772C93.6237 169.855 96.0464 175.208 96.0464 175.208C96.0464 175.208 93.5239 170.83 91.3624 171.781C89.1204 172.768 91.4253 179.004 91.4253 179.004C91.4253 179.004 89.0661 176.258 87.9374 177.769C86.8091 179.281 91.4762 192.569 95.4132 195.521C99.3416 198.466 114.203 193.34 118.841 189.705C122.019 187.215 127.133 183.871 126.981 179.459L117.235 182.842L117.518 183.1Z" fill="#FDAD6D"/>
<path opacity="0.2" d="M101.697 173.469C101.701 173.478 101.704 173.485 101.709 173.492L107.161 182.804C107.235 182.928 107.41 182.966 107.553 182.886C107.697 182.806 107.753 182.635 107.681 182.516L102.229 173.204C102.155 173.08 101.979 173.043 101.836 173.122C101.701 173.197 101.643 173.348 101.697 173.469Z" fill="#1F263E"/>
<path opacity="0.2" d="M95.8999 175.609L95.9027 175.615L100.428 184.975C100.492 185.106 100.662 185.154 100.81 185.084C100.959 185.013 101.012 184.881 100.965 184.72L96.4397 175.359C96.3763 175.229 96.2054 175.181 96.0575 175.251C95.9107 175.321 95.842 175.48 95.8999 175.609Z" fill="#1F263E"/>
<path opacity="0.2" d="M91.2991 179.449L94.4628 186.5C94.5223 186.632 94.6919 186.684 94.8414 186.617C94.9907 186.55 95.0648 186.388 95.0056 186.257L91.8418 179.205C91.7826 179.073 91.6128 179.021 91.463 179.088C91.3134 179.155 91.2396 179.316 91.2991 179.449Z" fill="#1F263E"/>
</svg>
